<svg width="36" height="36" viewBox="0 0 36 36" fill="none" xmlns="http://www.w3.org/2000/svg">
<rect width="36" height="36" fill="#1A1B1F"/>
<path d="M18.9906 7C19 12 17.6392 14.6671 16.5 16C14.9328 17.8337 13.8355 18.2179 12.4228 19.1678C14 20 14.6962 20.5829 15.8461 22.3078L14 26C13.0176 24.5264 12 23 10 22C8 21 5.62545 21 5 21V17.011C7.48032 17.011 11 16 12.9555 13.6796C14.5 11.8469 15 10.5 15 7H18.9906Z" fill="#ACEBA0"/>
<path d="M28.7374 4C28.7413 6.05046 28.1832 7.14422 27.7161 7.69083C27.0733 8.44282 26.6234 8.60038 26.044 8.98993C26.6908 9.3312 26.9763 9.57025 27.4479 10.2776L26.6908 11.7917C26.2879 11.1874 25.8706 10.5615 25.0505 10.1514C24.2303 9.74129 23.2565 9.74129 23 9.74129V8.10543C24.0172 8.10543 25.4606 7.69083 26.2625 6.73923C26.8959 5.98766 27.1009 5.43532 27.1009 4H28.7374Z" fill="#ACEBA0"/>
<path d="M14.9997 31.3848C14.9902 26.3848 16.351 23.7177 17.4902 22.3848C19.0575 20.5511 20.1548 20.1668 21.5674 19.2169C19.9902 18.3848 19.3038 17.9171 18.1539 16.1922L20 12.5C20.9824 13.9736 21.9902 15.3848 23.9902 16.3848C25.9902 17.3848 28.3648 17.3848 28.9902 17.3848V21.3738C26.5099 21.3738 22.9902 22.3848 21.0347 24.7052C19.4902 26.5379 18.9902 27.8848 18.9902 31.3848H14.9997Z" fill="#ACEBA0"/>
<path d="M27.1005 14C27.0966 11.9495 27.6547 10.8558 28.1218 10.3092C28.7645 9.55718 29.2145 9.39962 29.7939 9.01007C29.1471 8.6688 28.8656 8.47701 28.394 7.76966L29.1511 6.25551C29.5539 6.85983 29.9672 7.43853 30.7874 7.84862C31.6076 8.25871 32.5814 8.25871 32.8379 8.25871V9.89457C31.8207 9.89457 30.3773 10.3092 29.5754 11.2608C28.942 12.0123 28.737 12.5647 28.737 14H27.1005Z" fill="#ACEBA0"/>
</svg>
